# xmcd CD database file generated by Grip 3.2.0
# 
# Track frame offsets:
#       150
#       27912
#       48257
#       65992
#       89195
#       112212
#       131962
#       155202
#       173617
#       189812
#       210022
#       231140
#       250195
# 
# Disc length: 3691 seconds
# 
# Revision: 2
# Processed by: cddbd v1.5.1PL0 Copyright (c) Steve Scherf et al.
# Submitted via: Grip 3.2.0
# 
DISCID=b90e690d
DTITLE=Celine Dion - Celine Dion
DYEAR=1992
DGENRE=Blues
TTITLE0=Love Can Move Mountains
TTITLE1=Show Some Emotion
TTITLE2=If You Asked Me To
TTITLE3=If You Could See Me Now
TTITLE4=Halfway To Heaven
TTITLE5=Did You Give Enough Love
TTITLE6=If I Were You
TTITLE7=Beauty And The Beast
TTITLE8=I Love You, Goodbye
TTITLE9=Little Bit Of Love
TTITLE10=Water From The Moon
TTITLE11=With This Tear
TTITLE12=Nothing Broken But My Heart
EXTD=
EXTT0=
EXTT1=
EXTT2=
EXTT3=
EXTT4=
EXTT5=
EXTT6=
EXTT7=e Dion and Peabo Bryson.
EXTT8=
EXTT9=
EXTT10=
EXTT11=
EXTT12=
PLAYORDER=
